<svg width="30" height="30" viewBox="0 0 30 30" fill="none" xmlns="http://www.w3.org/2000/svg">
<path d="M15.4202 0.21875C7.39288 0.21875 0.888969 6.72266 0.888969 14.75C0.888969 22.7773 7.39288 29.2812 15.4202 29.2812C23.4476 29.2812 29.9515 22.7773 29.9515 14.75C29.9515 6.72266 23.4476 0.21875 15.4202 0.21875ZM15.4202 27.4062C8.44756 27.4062 2.76397 21.7812 2.76397 14.75C2.76397 7.83594 8.38897 2.09375 15.4202 2.09375C22.3343 2.09375 28.0765 7.77734 28.0765 14.75C28.0765 21.7227 22.3929 27.4062 15.4202 27.4062ZM20.928 10.707C21.221 10.4141 21.221 10.0039 20.928 9.71094L20.4593 9.24219C20.1663 8.94922 19.7562 8.94922 19.4632 9.24219L15.4202 13.2852L11.3187 9.24219C11.0843 8.94922 10.6155 8.94922 10.3226 9.24219L9.85381 9.71094C9.56084 10.0039 9.56084 10.4141 9.85381 10.707L13.8968 14.75L9.85381 18.8516C9.56084 19.0859 9.56084 19.5547 9.85381 19.8477L10.3226 20.3164C10.6155 20.6094 11.0843 20.6094 11.3187 20.3164L15.4202 16.2734L19.4632 20.3164C19.7562 20.6094 20.1663 20.6094 20.4593 20.3164L20.928 19.8477C21.221 19.5547 21.221 19.0859 20.928 18.8516L16.8851 14.75L20.928 10.707Z" fill="#E90000"/>
</svg>
