<svg width="21" height="19" viewBox="0 0 21 19" fill="none" xmlns="http://www.w3.org/2000/svg">
<path d="M14.5078 12.3789C14.4375 12.4492 14.4375 12.5195 14.4375 12.5898V16.5625H2.0625V4.1875H10.5352C10.6055 4.1875 10.6758 4.1875 10.7461 4.11719L11.8711 2.99219C12.0469 2.81641 11.9062 2.5 11.6602 2.5H2.0625C1.11328 2.5 0.375 3.27344 0.375 4.1875V16.5625C0.375 17.5117 1.11328 18.25 2.0625 18.25H14.4375C15.3516 18.25 16.125 17.5117 16.125 16.5625V11.4648C16.125 11.2188 15.8086 11.0781 15.6328 11.2539L14.5078 12.3789ZM19.9922 5.3125C20.8008 4.50391 20.8008 3.20312 19.9922 2.39453L18.4805 0.882812C17.6719 0.0742188 16.3711 0.0742188 15.5625 0.882812L6.35156 10.0938L6 13.293C5.89453 14.207 6.66797 14.9805 7.58203 14.875L10.7812 14.5234L19.9922 5.3125ZM16.5469 6.36719L10.0078 12.9062L7.6875 13.1875L7.96875 10.8672L14.5078 4.32812L16.5469 6.36719ZM18.7969 3.58984C18.9727 3.73047 18.9727 3.94141 18.832 4.11719L17.7422 5.20703L15.7031 3.13281L16.7578 2.07812C16.8984 1.90234 17.1445 1.90234 17.2852 2.07812L18.7969 3.58984Z" fill="#FFFFFF"/>
</svg>
