<svg width="30" height="30" viewBox="0 0 30 30" fill="none" xmlns="http://www.w3.org/2000/svg">
<path d="M15.4202 0.21875C7.39288 0.21875 0.888969 6.78125 0.888969 14.75C0.888969 22.7773 7.39288 29.2812 15.4202 29.2812C23.389 29.2812 29.9515 22.7773 29.9515 14.75C29.9515 6.78125 23.389 0.21875 15.4202 0.21875ZM15.4202 27.4062C8.44756 27.4062 2.76397 21.7812 2.76397 14.75C2.76397 7.83594 8.38897 2.09375 15.4202 2.09375C22.3343 2.09375 28.0765 7.77734 28.0765 14.75C28.0765 21.7227 22.3929 27.4062 15.4202 27.4062ZM23.6819 11.3516C23.9749 11.0586 23.9749 10.5898 23.6819 10.3555L23.2132 9.82812C22.9202 9.53516 22.4515 9.53516 22.2171 9.82812L12.6077 19.3203L8.56475 15.2773C8.33038 14.9844 7.86163 14.9844 7.56866 15.2773L7.09991 15.7461C6.80694 16.0391 6.80694 16.4492 7.09991 16.7422L12.139 21.8398C12.3733 22.0742 12.8421 22.0742 13.1351 21.8398L23.6819 11.3516Z" fill="#36A300"/>
</svg>
