<svg width="15" height="15" viewBox="0 0 15 15" fill="none" xmlns="http://www.w3.org/2000/svg">
<path d="M0.820312 0.724609C0.585938 0.490234 0.234375 0.666016 0.234375 0.958984V5.14844C0.234375 5.35352 0.380859 5.5 0.585938 5.5H4.77539C5.06836 5.5 5.24414 5.14844 5.00977 4.91406L3.42773 3.33203C4.45312 2.27734 5.88867 1.63281 7.5 1.63281C10.6641 1.63281 13.2422 4.21094 13.2422 7.375C13.2422 10.5684 10.6641 13.1172 7.5 13.1172C6.00586 13.1172 4.6875 12.5898 3.66211 11.6816C3.51562 11.5645 3.31055 11.5645 3.19336 11.6816L2.60742 12.2676C2.46094 12.4141 2.46094 12.6484 2.60742 12.7949C3.89648 13.9375 5.625 14.6406 7.5 14.6406C11.4844 14.6406 14.7363 11.418 14.7656 7.4043C14.7656 3.39062 11.4844 0.109375 7.4707 0.109375C5.47852 0.109375 3.66211 0.929688 2.34375 2.24805L0.820312 0.724609Z" fill="#EEEEEE"/>
</svg>
