<svg id="_x33_0" enable-background="new 0 0 62 62" height="512" viewBox="0 0 62 62" width="512" xmlns="http://www.w3.org/2000/svg"><g><g><g><path d="m61 10v48c0 .55-.45 1-1 1h-25.25l1.5-4h14.75l6-6v-36h-7.88c.84-1.09 1.47-2.36 1.82-3.76l.06-.24h9c.55 0 1 .45 1 1z" fill="#cf9e76"/></g><g><path d="m32.88 13h-7.88v23.65l-4 .94v-3.94-4.65-16-3c0-.55.45-1 1-1h.21 8.79l.06.24c.35 1.4.98 2.67 1.82 3.76z" fill="#cf9e76"/></g><g><path d="m37 53v-6c0 .55.22 1.05.59 1.41.36.37.86.59 1.41.59 1.1 0 2-.9 2-2v-8c0-2.21-1.79-4-4-4v-2-4-2c0-1.1-.9-2-2-2h-4c-1.1 0-2 .9-2 2v2 4 2.71l-4 .94v-23.65h7.88c1.89 2.46 4.86 4 8.12 4 2.35 0 4.55-.8 6.3-2.17.68-.53 1.29-1.14 1.82-1.83h7.88v36h-6v6h-14.75z" fill="#e6e9ed"/></g><g><path d="m47 7v2h-4v-2c0-.55-.22-1.05-.59-1.41-.36-.37-.86-.59-1.41-.59-1.1 0-2 .9-2 2v2h-4v-2c0-3.31 2.69-6 6-6 1.66 0 3.16.67 4.24 1.76 1.09 1.08 1.76 2.58 1.76 4.24z" fill="#fcd770"/></g><g><path d="m51 9-.06.24c-.35 1.4-.98 2.67-1.82 3.76-.53.69-1.14 1.3-1.82 1.83-1.75 1.37-3.95 2.17-6.3 2.17-3.26 0-6.23-1.54-8.12-4-.84-1.09-1.47-2.36-1.82-3.76l-.06-.24h4 4 4 4z" fill="#ffeaa7"/></g><g><path d="m21 33.65c-1.82.87-3.85 1.35-6 1.35-.6 0-1.2-.04-1.78-.12-6.89-.87-12.22-6.75-12.22-13.88 0-7.73 6.27-14 14-14 2.64 0 5.11.73 7.21 2h-.21c-.55 0-1 .45-1 1v3c-1.67-1.26-3.75-2-6-2-2.76 0-5.26 1.12-7.07 2.93s-2.93 4.31-2.93 7.07 1.12 5.26 2.93 7.07 4.31 2.93 7.07 2.93c2.25 0 4.33-.74 6-2z" fill="#ccd1d9"/></g><g><path d="m15 11c2.25 0 4.33.74 6 2v16c-1.67 1.26-3.75 2-6 2-2.76 0-5.26-1.12-7.07-2.93s-2.93-4.31-2.93-7.07 1.12-5.26 2.93-7.07 4.31-2.93 7.07-2.93z" fill="#69d6f4"/></g><g><path d="m15 39v10c0 1.1-.9 2-2 2h-2c-1.1 0-2-.9-2-2v-12c0-1.1.9-2 2-2h2c.07 0 .14 0 .2.01 1.01.1 1.8.96 1.8 1.99z" fill="#fcd770"/></g><g><path d="m9 37v12c0 1.1-.9 2-2 2h-4c-1.1 0-2-.9-2-2v-12c0-1.1.9-2 2-2h4c1.1 0 2 .9 2 2z" fill="#fcd770"/></g><g><path d="m37 53-.75 2-1.5 4-.4 1.06c-.21.57-.75.94-1.35.94s-1.14-.37-1.35-.94l-2.65-7.06h4z" fill="#aab2bd"/></g><g><path d="m35 25h-4c-1.1 0-2 .9-2 2v2 4h4 4v-4-2c0-1.1-.9-2-2-2z" fill="#aab2bd"/></g><g><path d="m41 39v8c0 1.1-.9 2-2 2-.55 0-1.05-.22-1.41-.59-.37-.36-.59-.86-.59-1.41v-5.13-6.87c2.21 0 4 1.79 4 4z" fill="#f0d0b4"/></g><g><path d="m33 39.66.45-.3c.36-.23.78-.36 1.21-.36.82 0 1.57.46 1.94 1.2l.01.02c.26.51.39 1.08.39 1.65 0 1.32-.7 2.54-1.84 3.2l-2.16 1.26-4 2.34-2.29 1.33c-1.12.66-2.39 1-3.69 1-.68 0-1.35-.09-2-.28l-6.02-1.72v-10l6-1.41 4-.94 4-.94v6.58c.17-.09.34-.19.51-.3z" fill="#f0d0b4"/></g><g><path d="m45 33h8v8h-8z" fill="#ff826e"/></g><g><path d="m45 21h8v8h-8z" fill="#ff826e"/></g><g><path d="m15.77 19.15c.72.31 1.23 1.02 1.23 1.85 0 1.1-.9 2-2 2s-2-.9-2-2c0-.55.22-1.05.59-1.41.36-.37.86-.59 1.41-.59.27 0 .53.05.77.15z" fill="#ff826e"/></g><g><path d="m37 47v6h-4v-6.67l2.16-1.26c1.14-.66 1.84-1.88 1.84-3.2z" fill="#ff826e"/></g><g><path d="m37 35v6.87c0-.57-.13-1.14-.39-1.65l-.01-.02c-.37-.74-1.12-1.2-1.94-1.2-.43 0-.85.13-1.21.36l-.45.3v-6.66h4z" fill="#ff826e"/></g><g><path d="m33 46.33v6.67h-4v-4.33z" fill="#b4dd7f"/></g><g><path d="m33 33v6.66l-3.49 2.33c-.17.11-.34.21-.51.3v-6.58-2.71z" fill="#b4dd7f"/></g><g><path d="m57 49-6 6v-6z" fill="#b4dd7f"/></g></g><g><path d="m4 56h2v2h-2z"/><path d="m8 56h2v2h-2z"/><path d="m12 56h2v2h-2z"/><path d="m16 56h2v2h-2z"/><path d="m20 56h2v2h-2z"/><path d="m60 8h-12v-1c0-3.86-3.14-7-7-7s-7 3.14-7 7v1h-11.527c-2.266-1.305-4.842-2-7.473-2-8.271 0-15 6.729-15 15 0 5.62 3.111 10.521 7.696 13.09-.224-.054-.455-.09-.696-.09h-4c-1.654 0-3 1.346-3 3v12c0 1.654 1.346 3 3 3h4c.771 0 1.468-.301 2-.78.532.48 1.229.78 2 .78h2c1.209 0 2.246-.722 2.721-1.754l5.02 1.434c.743.212 1.511.32 2.283.32 1.469 0 2.917-.391 4.187-1.132l.789-.46v2.773l2.712 7.233c.355.949 1.275 1.586 2.288 1.586s1.933-.637 2.288-1.585l.155-.415h24.557c1.103 0 2-.897 2-2v-48c0-1.103-.897-2-2-2zm-4 40h-6v6h-12.307l.307-.819v-3.365c.314.112.648.184 1 .184 1.654 0 3-1.346 3-3v-8c0-2.414-1.721-4.434-4-4.899v-7.101c0-1.654-1.346-3-3-3h-4c-1.654 0-3 1.346-3 3v7.914l-2 .471v-21.385h6.406c2.084 2.473 5.187 4 8.594 4s6.51-1.527 8.594-4h6.406zm-1.414 2-2.586 2.586v-2.586zm-19.779 6h-3.614l-.75-2h5.114zm.86-10.065c.117-.068.223-.148.333-.225v6.29h-2v-5.092zm2.333-9.751c1.161.414 2 1.514 2 2.816v8c0 .551-.449 1-1 1s-1-.449-1-1zm-2-8.184h-6v-1c0-.551.449-1 1-1h4c.551 0 1 .449 1 1zm-6 2h6v2h-6zm0 4h2v5.131l-2 1.333zm4 0h2v4.299c-.412-.192-.867-.299-1.342-.299-.223 0-.442.031-.658.077zm-18.198 1.956c1.443-.076 2.849-.337 4.198-.815v1.655l-4 .941v-.737c0-.368-.076-.717-.198-1.044zm-1.802-7.956v1.941c-1.733-.193-3.316-.88-4.611-1.916l1.368-1.368-1.414-1.414-1.368 1.368c-1.036-1.295-1.723-2.878-1.916-4.611h1.941v-2h-1.941c.193-1.733.88-3.316 1.916-4.611l1.368 1.368 1.414-1.414-1.368-1.368c1.295-1.036 2.878-1.723 4.611-1.916v1.941h2v-1.939c1.436.158 2.796.654 4 1.462v14.954c-1.204.808-2.564 1.304-4 1.462v-1.939zm8-18h8.243c.211.7.481 1.37.813 2h-7.056v23.855l-2 .471zm19 6c-3.895 0-7.312-2.422-8.651-6h17.301c-1.338 3.578-4.755 6-8.65 6zm1-8h-2v-1c0-.551.449-1 1-1s1 .449 1 1zm-6-1c0-2.757 2.243-5 5-5s5 2.243 5 5v1h-2v-1c0-1.654-1.346-3-3-3s-3 1.346-3 3v1h-2zm-34 14c0-7.168 5.832-13 13-13 1.809 0 3.587.378 5.225 1.097-.139.272-.225.576-.225.903v1.202c-1.537-.788-3.235-1.202-5-1.202-6.065 0-11 4.935-11 11s4.935 11 11 11c1.765 0 3.463-.414 5-1.202v2.185c-1.584.663-3.259 1.017-5 1.017-7.168 0-13-5.832-13-13zm7.032 13.754c-.011.009-.022.017-.032.026-.039-.035-.08-.067-.121-.1.052.024.101.051.153.074zm-2.032 15.246h-4c-.551 0-1-.449-1-1v-12c0-.551.449-1 1-1h4c.551 0 1 .449 1 1v12c0 .551-.449 1-1 1zm7-1c0 .551-.449 1-1 1h-2c-.551 0-1-.449-1-1v-12c0-.551.449-1 1-1h2c.551 0 1 .449 1 1zm12.204.141c-1.472.857-3.278 1.084-4.913.617l-5.291-1.512v-8.453l12-2.823v4.676c-.577.224-1.188.354-1.817.354h-2.183v2h2.183c1.387 0 2.729-.407 3.883-1.176l3.94-2.627c.567-.377 1.39-.166 1.708.468.187.374.286.792.286 1.209 0 .957-.514 1.851-1.34 2.333zm5.796-1.067v3.926h-2v-2.759zm.585 11.638-.642-1.712h2.114l-.642 1.713c-.129.344-.701.344-.83-.001zm27.415-1.712h-23.807l.75-2h14.471l6.586-6.586v-37.414h-7.055c.332-.63.602-1.3.813-2h8.242z"/><path d="m42 12h2v2h-2z"/><path d="m38 12h2v2h-2z"/><path d="m28 20h14v2h-14z"/><path d="m28 16h4v2h-4z"/><path d="m44 30h10v-10h-10zm2-8h6v6h-6z"/><path d="m47.586 24h2.828v2h-2.828z" transform="matrix(.707 -.707 .707 .707 -3.326 41.971)"/><path d="m44 42h10v-10h-10zm2-8h6v6h-6z"/><path d="m47.586 36h2.828v2h-2.828z" transform="matrix(.707 -.707 .707 .707 -11.811 45.485)"/><path d="m18 21c0-.883-.39-1.669-.999-2.219l1.601-3.866-1.848-.766-1.601 3.866c-.051-.002-.1-.015-.153-.015-.462 0-.894.113-1.285.301l-1.543-1.543-1.414 1.414 1.543 1.543c-.188.391-.301.823-.301 1.285 0 1.654 1.346 3 3 3s3-1.346 3-3zm-3 1c-.551 0-1-.449-1-1s.449-1 1-1 1 .449 1 1-.449 1-1 1z"/></g></g></svg>